<?xml version="1.0" encoding="iso-8859-1"?>
<!-- Uploaded to: SVG Repo, www.svgrepo.com, Generator: SVG Repo Mixer Tools -->
<!DOCTYPE svg PUBLIC "-//W3C//DTD SVG 1.1//EN" "http://www.w3.org/Graphics/SVG/1.1/DTD/svg11.dtd">
<svg fill="#ffa726" version="1.1" id="Capa_1" xmlns="http://www.w3.org/2000/svg" xmlns:xlink="http://www.w3.org/1999/xlink" 
	 width="800px" height="800px" viewBox="0 0 67.739 67.738"
	 xml:space="preserve">
<g>
	<g>
		<path d="M17.943,56.105c-0.956,0-1.734,0.775-1.734,1.733s0.778,1.736,1.734,1.736c0.957,0,1.734-0.778,1.734-1.736
			S18.899,56.105,17.943,56.105z M17.943,59.188c-0.744,0-1.348-0.605-1.348-1.351c0-0.746,0.604-1.349,1.348-1.349
			c0.745,0,1.349,0.603,1.349,1.349C19.292,58.582,18.688,59.188,17.943,59.188z"/>
		<path d="M15.824,60.344c-0.955,0-1.735,0.777-1.735,1.735c0,0.956,0.778,1.731,1.735,1.731c0.958,0,1.736-0.775,1.736-1.731
			C17.56,61.121,16.779,60.344,15.824,60.344z M15.824,63.428c-0.745,0-1.347-0.607-1.347-1.349c0-0.745,0.602-1.351,1.347-1.351
			c0.742,0,1.35,0.605,1.35,1.351C17.174,62.82,16.566,63.428,15.824,63.428z"/>
		<path d="M20.063,51.865c-0.957,0-1.735,0.777-1.735,1.73c0,0.958,0.778,1.738,1.735,1.738c0.956,0,1.736-0.78,1.736-1.738
			C21.799,52.643,21.021,51.865,20.063,51.865z M20.063,54.946c-0.745,0-1.349-0.602-1.349-1.351c0-0.741,0.604-1.346,1.349-1.346
			c0.744,0,1.348,0.604,1.348,1.346C21.411,54.345,20.809,54.946,20.063,54.946z"/>
		<path d="M24.478,49.687c-5.879,0.292-11.158,0.828-15.836,1.542c0.027,1.047,0.027,2.112-0.049,3.226
			c-0.463,6.841,2.289,13.296,9.366,13.284c5.964-0.009,10.761-6.095,7.76-13.873C25.109,52.287,24.709,50.932,24.478,49.687z
			 M15.824,64.198c-1.168,0-2.118-0.951-2.118-2.119c0-1.17,0.95-2.121,2.118-2.121s2.119,0.951,2.119,2.121
			C17.943,63.247,16.992,64.198,15.824,64.198z M17.943,59.958c-1.168,0-2.119-0.951-2.119-2.119s0.951-2.117,2.119-2.117
			c1.17,0,2.12,0.949,2.12,2.117S19.113,59.958,17.943,59.958z M20.063,55.718c-1.17,0-2.12-0.949-2.12-2.122
			c0-1.168,0.95-2.116,2.12-2.116c1.168,0,2.119,0.948,2.119,2.116C22.184,54.769,21.231,55.718,20.063,55.718z"/>
		<path d="M49.407,44.253c0-0.953-0.778-1.731-1.733-1.731c-0.956,0-1.736,0.778-1.736,1.731c0,0.958,0.778,1.738,1.736,1.738
			C48.626,45.991,49.407,45.211,49.407,44.253z M46.325,44.253c0-0.741,0.604-1.346,1.349-1.346c0.743,0,1.348,0.604,1.348,1.346
			c0,0.748-0.604,1.351-1.348,1.351C46.927,45.604,46.325,45.001,46.325,44.253z"/>
		<path d="M51.526,48.496c0-0.959-0.778-1.734-1.733-1.734c-0.956,0-1.734,0.775-1.734,1.734c0,0.958,0.778,1.735,1.734,1.735
			C50.748,50.229,51.526,49.451,51.526,48.496z M48.444,48.496c0-0.744,0.604-1.351,1.349-1.351c0.743,0,1.348,0.606,1.348,1.351
			c0,0.745-0.604,1.35-1.348,1.35C49.048,49.844,48.444,49.239,48.444,48.496z"/>
		<path d="M59.094,41.885c-4.676-0.711-9.957-1.25-15.838-1.537c-0.229,1.241-0.632,2.598-1.243,4.179
			c-2.999,7.774,1.8,13.862,7.761,13.871c7.076,0.012,9.829-6.443,9.366-13.282C59.067,43.995,59.067,42.93,59.094,41.885z
			 M45.551,44.253c0-1.168,0.951-2.117,2.119-2.117c1.171,0,2.119,0.949,2.119,2.117c0,1.173-0.948,2.121-2.119,2.121
			C46.505,46.374,45.551,45.426,45.551,44.253z M47.673,48.496c0-1.168,0.948-2.117,2.119-2.117c1.168,0,2.119,0.949,2.119,2.117
			c0,1.167-0.951,2.119-2.119,2.119C48.622,50.615,47.673,49.663,47.673,48.496z M51.912,54.855c-1.168,0-2.119-0.951-2.119-2.119
			c0-1.17,0.951-2.121,2.119-2.121s2.119,0.951,2.119,2.121C54.031,53.904,53.08,54.855,51.912,54.855z"/>
		<path d="M51.912,51c-0.956,0-1.736,0.778-1.736,1.736c0,0.955,0.778,1.731,1.736,1.731s1.735-0.776,1.735-1.731
			C53.647,51.778,52.87,51,51.912,51z M51.912,54.084c-0.742,0-1.351-0.606-1.351-1.348c0-0.746,0.604-1.351,1.351-1.351
			c0.745,0,1.348,0.604,1.348,1.351C53.259,53.478,52.657,54.084,51.912,54.084z"/>
		<path d="M61.348,14.875C61.35,14.875,61.35,14.875,61.348,14.875c-0.003-0.017-0.005-0.033-0.01-0.049
			c-0.106-0.573-0.221-1.139-0.357-1.685c-0.007-0.033-0.014-0.067-0.021-0.101c-0.003,0-0.005,0-0.007,0
			c-1.912-7.454-6.46-12.338-11.07-12.95c-0.007-0.007-0.009-0.018-0.014-0.028c-0.15-0.021-0.306-0.007-0.461-0.016
			C49.243,0.036,49.074,0,48.907,0c-0.142,0-0.285,0.005-0.426,0.012c-1.113,0.066-2.172,0.493-3.176,1.156l0,0
			c-0.002,0.002-0.007,0.007-0.012,0.009c-0.96,0.637-1.852,1.516-2.657,2.603l0,0c-0.002,0.002-0.002,0.004-0.005,0.007
			c-0.344,0.462-0.668,0.96-0.976,1.492C41.644,5.3,41.63,5.316,41.617,5.335c0,0,0,0,0.002,0c-0.271,0.476-0.529,0.977-0.771,1.501
			c-0.002,0-0.002-0.002-0.005-0.004c-0.021,0.049-0.039,0.1-0.06,0.147c-0.195,0.432-0.381,0.876-0.552,1.334
			c-0.027,0.074-0.06,0.14-0.089,0.214c0.002,0.002,0.005,0.007,0.009,0.01c-0.25,0.693-0.477,1.412-0.673,2.163
			c-0.002-0.004-0.004-0.011-0.009-0.018c-0.036,0.139-0.062,0.286-0.098,0.426c-0.087,0.346-0.167,0.691-0.24,1.047
			c-0.1,0.486-0.185,0.981-0.26,1.483c-0.022,0.162-0.05,0.318-0.073,0.479c-0.018,0.145-0.048,0.285-0.063,0.43
			c0.005,0.016,0.016,0.031,0.022,0.049c-0.492,4.433-0.004,9.343,1.933,13.944c0.855,0.031,1.708,0.063,2.565,0.106
			c-0.075-0.165-0.132-0.309-0.207-0.477c-1.641-3.639-2.213-7.415-2.131-10.93c0.662,0.376,1.396,0.64,2.211,0.64
			c1.564,0,2.84,1.276,2.84,2.841c0,2.53,2.062,4.59,4.592,4.592c1.564,0,2.838,1.275,2.84,2.84c0,0.447,0.084,0.869,0.205,1.276
			c0.685,0.07,1.364,0.149,2.044,0.229c-0.287-0.443-0.497-0.94-0.497-1.505c0-2.53-2.06-4.59-4.592-4.592
			c-1.565,0-2.84-1.275-2.84-2.84c0-2.53-2.061-4.593-4.592-4.593c-0.84,0-1.572-0.38-2.095-0.959
			c0.101-0.983,0.254-1.927,0.452-2.838c0.671,1.707,2.326,2.925,4.268,2.928c1.565,0,2.838,1.273,2.84,2.84
			c0,2.532,2.061,4.592,4.592,4.592c1.565,0,2.84,1.275,2.84,2.841c0,1.757,1.006,3.268,2.459,4.039
			c-0.029,0.142-0.052,0.292-0.079,0.437c0.779,0.105,1.556,0.214,2.326,0.331c0.012-0.06,0.021-0.125,0.032-0.184h0.002
			c0.109-0.572,0.219-1.147,0.324-1.733c-0.005,0-0.009,0-0.014,0c0.082-0.451,0.166-0.894,0.244-1.357c0.002,0,0.002,0,0.002,0
			c0.039-0.229,0.085-0.45,0.119-0.684C62.108,22.172,61.992,18.301,61.348,14.875z M45.798,3.742
			c0.357,0.475,0.611,1.035,0.611,1.672c0,2.532,2.06,4.593,4.592,4.593c1.564,0,2.84,1.275,2.84,2.84
			c0,2.53,2.062,4.589,4.592,4.592c0.342,0,0.663,0.084,0.967,0.196c0.087,0.862,0.144,1.736,0.153,2.627
			c-0.833-1.175-2.197-1.95-3.746-1.95c-1.564,0-2.84-1.275-2.84-2.84c0-2.53-2.062-4.589-4.592-4.592
			c-1.564,0-2.838-1.276-2.84-2.841c0-1.083-0.408-2.055-1.038-2.837C44.916,4.636,45.351,4.144,45.798,3.742z M48.618,2.343
			c0.096-0.004,0.191-0.007,0.289-0.007c0.019,0,0.041,0.007,0.06,0.009c0.022,0.147,0.066,0.29,0.066,0.443
			c0,2.53,2.062,4.593,4.592,4.593c1.564,0,2.838,1.275,2.84,2.84c0,1.727,0.972,3.216,2.384,4.001
			c0.116,0.5,0.196,1.019,0.285,1.535c-0.23-0.036-0.459-0.071-0.7-0.071c-1.565,0-2.84-1.275-2.84-2.84
			c0-2.53-2.061-4.592-4.592-4.592c-1.565,0-2.841-1.273-2.841-2.841c0-1.012-0.344-1.931-0.9-2.69
			C47.716,2.512,48.172,2.371,48.618,2.343z M54.794,5.652c0.048,0.059,0.091,0.131,0.14,0.192
			c-0.418-0.125-0.852-0.212-1.308-0.212c-1.564,0-2.84-1.275-2.84-2.841c0-0.027-0.014-0.049-0.014-0.076
			C52.156,3.203,53.536,4.181,54.794,5.652z M57.774,25.531c0-2.529-2.062-4.593-4.592-4.593c-1.565,0-2.838-1.273-2.84-2.84
			c0-2.532-2.061-4.592-4.592-4.592c-1.565,0-2.841-1.276-2.841-2.841c0-0.635-0.161-1.226-0.396-1.779
			c0.29-0.739,0.604-1.421,0.949-2.054c0.187,0.367,0.321,0.764,0.321,1.208c0,2.53,2.06,4.591,4.592,4.593
			c1.564,0,2.84,1.275,2.84,2.84c0,2.53,2.06,4.592,4.592,4.592c1.565,0,2.84,1.273,2.84,2.841c0,0.794,0.237,1.521,0.594,2.169
			c-0.042,0.316-0.058,0.624-0.107,0.94c-0.092,0.576-0.203,1.114-0.306,1.67C58.2,27.161,57.774,26.407,57.774,25.531z"/>
		<path d="M28.874,23.001c-0.011-0.078-0.034-0.145-0.047-0.223c-0.145-0.938-0.335-1.843-0.564-2.721
			c-0.026-0.096-0.035-0.203-0.061-0.297c-0.005,0.005-0.008,0.012-0.012,0.016c-0.194-0.709-0.413-1.391-0.656-2.05
			c0.002-0.002,0.007-0.007,0.009-0.009c-0.028-0.075-0.061-0.138-0.089-0.21c-0.166-0.437-0.346-0.851-0.535-1.261
			c-0.029-0.064-0.051-0.131-0.081-0.194c-0.003,0-0.003,0.002-0.006,0.005c-0.235-0.5-0.483-0.977-0.745-1.429h0.002
			c-0.011-0.02-0.025-0.035-0.038-0.054c-0.312-0.538-0.645-1.04-0.995-1.508c-0.002-0.004-0.007-0.009-0.009-0.014l0,0
			c-0.811-1.077-1.705-1.948-2.67-2.576c-0.012-0.007-0.024-0.019-0.036-0.025l0,0c-0.976-0.628-2.008-1.03-3.085-1.096
			c-0.143-0.007-0.285-0.012-0.428-0.012c-0.082,0-0.161,0.021-0.243,0.023c-0.196,0.01-0.395,0.031-0.591,0.055
			C13.352,9.95,8.742,14.826,6.803,22.319c-0.002,0-0.002,0.002-0.005,0.002c-0.007,0.025-0.012,0.054-0.017,0.081
			c-0.139,0.55-0.256,1.119-0.368,1.694c-0.002,0.021-0.009,0.04-0.012,0.058l0,0c-0.652,3.441-0.775,7.335-0.104,11.565
			c0.031,0.185,0.064,0.357,0.093,0.54h0.002c0.084,0.502,0.178,0.981,0.267,1.469c-0.005,0-0.009,0-0.016,0
			c0.105,0.584,0.212,1.154,0.322,1.721h0.002c0.015,0.075,0.026,0.154,0.042,0.228c0.771-0.114,1.546-0.224,2.327-0.33
			C9.3,39.152,9.267,38.949,9.23,38.756c1.311-0.806,2.196-2.236,2.196-3.884c0-1.566,1.275-2.841,2.84-2.841
			c2.53,0,4.591-2.06,4.593-4.592c0-1.565,1.275-2.84,2.84-2.84c2.135,0,3.919-1.475,4.431-3.454
			c0.231,0.96,0.408,1.958,0.533,3.004c-0.506,0.778-1.344,1.323-2.336,1.323c-2.532,0-4.592,2.062-4.592,4.592
			c0,1.565-1.276,2.838-2.841,2.84c-2.53,0-4.59,2.061-4.592,4.592c0,0.582-0.22,1.091-0.519,1.542
			c0.682-0.082,1.366-0.159,2.058-0.237c0.124-0.415,0.213-0.849,0.213-1.305c0-1.564,1.275-2.838,2.84-2.84
			c2.529,0,4.593-2.06,4.593-4.592c0-1.564,1.273-2.84,2.84-2.84c0.925,0,1.779-0.28,2.499-0.755
			c0.098,3.548-0.473,7.364-2.13,11.045c-0.077,0.166-0.135,0.311-0.208,0.479c0.855-0.043,1.71-0.077,2.567-0.106
			c2.073-4.922,2.497-10.198,1.822-14.863C28.871,23.015,28.874,23.008,28.874,23.001z M8.19,29.247
			c0.02-0.79,0.073-1.565,0.149-2.329c0.223-0.056,0.435-0.138,0.673-0.138c2.53,0,4.593-2.06,4.593-4.592
			c0-1.565,1.273-2.84,2.84-2.84c2.532,0,4.592-2.061,4.592-4.593c0-0.712,0.29-1.345,0.724-1.846
			c0.468,0.395,0.918,0.893,1.355,1.46c-0.727,0.807-1.206,1.841-1.206,3.011c0,1.564-1.275,2.839-2.84,2.841
			c-2.53,0-4.592,2.06-4.592,4.592c0,1.565-1.274,2.84-2.841,2.84C10.258,27.656,9.034,28.28,8.19,29.247z M16.648,12.188
			c-0.033,1.54-1.282,2.785-2.828,2.785c-0.321,0-0.631,0.034-0.93,0.096c0.018-0.024,0.033-0.049,0.051-0.073
			C14.105,13.636,15.373,12.714,16.648,12.188z M10.979,19.565c0-1.565,1.275-2.838,2.84-2.84c2.529,0,4.592-2.063,4.592-4.593
			c0-0.14,0.042-0.266,0.062-0.401c0.119-0.007,0.238-0.051,0.354-0.051c0.096,0,0.192,0.002,0.288,0.007
			c0.378,0.024,0.764,0.133,1.148,0.29c-0.602,0.773-0.981,1.727-0.981,2.782c0,1.565-1.273,2.841-2.84,2.841
			c-2.532,0-4.592,2.062-4.592,4.592c0,1.565-1.276,2.837-2.841,2.84c-0.141,0-0.271,0.026-0.406,0.038
			c0.096-0.573,0.198-1.137,0.33-1.689C10.167,22.555,10.979,21.154,10.979,19.565z M24.536,20.006c0,1.565-1.275,2.841-2.84,2.841
			c-2.53,0-4.59,2.06-4.592,4.592c0,1.565-1.276,2.84-2.841,2.84c-2.53,0-4.592,2.063-4.592,4.593c0,0.759-0.311,1.442-0.799,1.954
			c-0.091-0.493-0.192-0.963-0.271-1.472c-0.078-0.482-0.109-0.959-0.167-1.438c0.211-0.521,0.363-1.07,0.363-1.667
			c0-1.566,1.273-2.841,2.84-2.841c2.532,0,4.593-2.062,4.593-4.592c0-1.565,1.275-2.838,2.84-2.84c2.53,0,4.589-2.061,4.592-4.593
			c0-0.553,0.198-1.039,0.477-1.467c0.343,0.604,0.664,1.252,0.956,1.96C24.751,18.513,24.536,19.23,24.536,20.006z"/>
	</g>
</g>
</svg>